<svg width="29" height="28" viewBox="0 0 29 28" fill="none" xmlns="http://www.w3.org/2000/svg">
<path d="M22.3435 17.2742C22.569 16.6647 23.431 16.6647 23.6565 17.2742L24.5088 19.5776C24.5797 19.7692 24.7308 19.9203 24.9224 19.9912L27.2258 20.8435C27.8353 21.069 27.8353 21.931 27.2258 22.1565L24.9224 23.0088C24.7308 23.0797 24.5797 23.2308 24.5088 23.4224L23.6565 25.7258C23.431 26.3353 22.569 26.3353 22.3435 25.7258L21.4912 23.4224C21.4203 23.2308 21.2692 23.0797 21.0776 23.0088L18.7742 22.1565C18.1647 21.931 18.1647 21.069 18.7742 20.8435L21.0776 19.9912C21.2692 19.9203 21.4203 19.7692 21.4912 19.5776L22.3435 17.2742Z" fill="#31B5FF"/>
<path d="M24.4373 2.0207C24.6306 1.49833 25.3694 1.49833 25.5627 2.0207L25.9846 3.16089C26.0454 3.32512 26.1749 3.45461 26.3391 3.51538L27.4793 3.93729C28.0017 4.13058 28.0017 4.86942 27.4793 5.06271L26.3391 5.48462C26.1749 5.54539 26.0454 5.67488 25.9846 5.83911L25.5627 6.9793C25.3694 7.50167 24.6306 7.50167 24.4373 6.9793L24.0154 5.83911C23.9546 5.67488 23.8251 5.54539 23.6609 5.48462L22.5207 5.06271C21.9983 4.86942 21.9983 4.13058 22.5207 3.93729L23.6609 3.51538C23.8251 3.45461 23.9546 3.32512 24.0154 3.16089L24.4373 2.0207Z" fill="#31B5FF"/>
<path d="M8.06215 5.03451C8.38431 4.16389 9.61569 4.16389 9.93785 5.03451L11.2712 8.63794C11.3725 8.91166 11.5883 9.12747 11.8621 9.22876L15.4655 10.5621C16.3361 10.8843 16.3361 12.1157 15.4655 12.4379L11.8621 13.7712C11.5883 13.8725 11.3725 14.0883 11.2712 14.3621L9.93785 17.9655C9.61569 18.8361 8.38431 18.8361 8.06215 17.9655L6.72876 14.3621C6.62747 14.0883 6.41166 13.8725 6.13794 13.7712L2.53451 12.4379C1.66389 12.1157 1.66389 10.8843 2.53451 10.5621L6.13794 9.22876C6.41166 9.12747 6.62747 8.91166 6.72876 8.63794L8.06215 5.03451Z" fill="#31B5FF"/>
</svg>
