<svg width="33" height="33" viewBox="0 0 33 33" fill="none" xmlns="http://www.w3.org/2000/svg">
<path d="M6.20925 16.1002C6.20925 16.4556 6.0681 16.7963 5.81684 17.0476C5.56559 17.2988 5.22481 17.44 4.86948 17.44H3.52971C3.17438 17.44 2.83361 17.2988 2.58235 17.0476C2.3311 16.7963 2.18994 16.4556 2.18994 16.1002C2.18994 15.7449 2.3311 15.4041 2.58235 15.1529C2.83361 14.9016 3.17438 14.7605 3.52971 14.7605H4.86948C5.22481 14.7605 5.56559 14.9016 5.81684 15.1529C6.0681 15.4041 6.20925 15.7449 6.20925 16.1002ZM7.45524 8.61091C7.57979 8.73648 7.72796 8.83615 7.89123 8.90417C8.05449 8.97219 8.22961 9.00721 8.40647 9.00721C8.58334 9.00721 8.75845 8.97219 8.92172 8.90417C9.08498 8.83615 9.23316 8.73648 9.35771 8.61091C9.60724 8.35989 9.7473 8.02032 9.7473 7.66637C9.7473 7.31242 9.60724 6.97286 9.35771 6.72183L8.40647 5.7706C8.14643 5.58886 7.83034 5.5053 7.51446 5.53479C7.19858 5.56428 6.90341 5.70491 6.68151 5.93164C6.4596 6.15837 6.32535 6.45649 6.30266 6.77293C6.27997 7.08937 6.37031 7.4036 6.55759 7.65967L7.45524 8.61091ZM25.3412 9.16021C25.6926 9.15873 26.0295 9.0192 26.279 8.77168L27.2302 7.82044C27.3705 7.70034 27.4844 7.55254 27.5648 7.38632C27.6452 7.2201 27.6904 7.03905 27.6975 6.85454C27.7047 6.67003 27.6736 6.48604 27.6062 6.31411C27.5389 6.14218 27.4367 5.98604 27.3061 5.85547C27.1756 5.7249 27.0194 5.62274 26.8475 5.55538C26.6756 5.48802 26.4916 5.45693 26.3071 5.46406C26.1226 5.47119 25.9415 5.51638 25.7753 5.59679C25.6091 5.67721 25.4613 5.79112 25.3412 5.93137L24.3899 6.86921C24.201 7.0566 24.0721 7.29602 24.0198 7.55694C23.9674 7.81785 23.994 8.08845 24.096 8.33422C24.1981 8.57999 24.371 8.78981 24.5928 8.93692C24.8145 9.08403 25.0751 9.16176 25.3412 9.16021ZM16.9006 5.58303C17.2559 5.58303 17.5967 5.44188 17.848 5.19062C18.0992 4.93936 18.2404 4.59859 18.2404 4.24326V2.90349C18.2404 2.54816 18.0992 2.20739 17.848 1.95613C17.5967 1.70487 17.2559 1.56372 16.9006 1.56372C16.5453 1.56372 16.2045 1.70487 15.9533 1.95613C15.702 2.20739 15.5608 2.54816 15.5608 2.90349V4.24326C15.5608 4.42263 15.5967 4.6002 15.6665 4.76542C15.7364 4.93065 15.8387 5.08017 15.9674 5.20512C16.0961 5.33007 16.2485 5.4279 16.4157 5.49282C16.583 5.55773 16.7615 5.58841 16.9408 5.58303H16.9006ZM16.6863 26.8318C16.3309 26.8318 15.9901 26.9729 15.7389 27.2242C15.4876 27.4754 15.3465 27.8162 15.3465 28.1715V29.5113C15.3465 29.8666 15.4876 30.2074 15.7389 30.4587C15.9901 30.7099 16.3309 30.8511 16.6863 30.8511C17.0416 30.8511 17.3824 30.7099 17.6336 30.4587C17.8849 30.2074 18.026 29.8666 18.026 29.5113V28.1715C18.0262 27.8231 17.8906 27.4883 17.6479 27.2381C17.4053 26.988 17.0748 26.8422 16.7264 26.8318H16.6863ZM16.9408 8.16879C15.3297 8.16879 13.7548 8.64653 12.4152 9.5416C11.0757 10.4367 10.0316 11.7089 9.41507 13.1973C8.79853 14.6858 8.63722 16.3236 8.95153 17.9038C9.26583 19.4839 10.0416 20.9353 11.1809 22.0745C12.3201 23.2137 13.7715 23.9896 15.3516 24.3039C16.9318 24.6182 18.5696 24.4569 20.0581 23.8403C21.5465 23.2238 22.8187 22.1797 23.7138 20.8401C24.6089 19.5006 25.0866 17.9257 25.0866 16.3146C25.0866 14.1542 24.2284 12.0823 22.7008 10.5546C21.1731 9.027 19.1012 8.16879 16.9408 8.16879ZM7.34805 23.6431L6.39682 24.5944C6.19318 24.7791 6.05129 25.0219 5.99039 25.29C5.9295 25.5581 5.95254 25.8384 6.05641 26.0929C6.16027 26.3475 6.33992 26.5639 6.57099 26.7129C6.80205 26.8618 7.07334 26.9361 7.34805 26.9256C7.70144 26.9205 8.03853 26.7761 8.28589 26.5236L9.23713 25.5858C9.3627 25.4612 9.46238 25.3131 9.53039 25.1498C9.59841 24.9865 9.63343 24.8114 9.63343 24.6346C9.63343 24.4577 9.59841 24.2826 9.53039 24.1193C9.46238 23.956 9.3627 23.8079 9.23713 23.6833C8.99146 23.4284 8.65486 23.281 8.30088 23.2735C7.94691 23.266 7.60435 23.3989 7.34805 23.6431ZM26.212 23.8039C26.0875 23.6783 25.9393 23.5787 25.776 23.5106C25.6128 23.4426 25.4376 23.4076 25.2608 23.4076C25.0839 23.4076 24.9088 23.4426 24.7455 23.5106C24.5823 23.5787 24.4341 23.6783 24.3095 23.8039C24.06 24.0549 23.9199 24.3945 23.9199 24.7484C23.9199 25.1024 24.06 25.442 24.3095 25.693L25.2608 26.6442C25.386 26.7684 25.5344 26.8666 25.6977 26.9333C25.8609 27 26.0357 27.0338 26.212 27.0327C26.4742 27.0291 26.7296 26.9485 26.9465 26.801C27.1634 26.6536 27.3322 26.4457 27.432 26.2032C27.5319 25.9607 27.5584 25.6942 27.5082 25.4368C27.4581 25.1794 27.3335 24.9424 27.1499 24.7551L26.212 23.8039ZM30.2313 14.9748H28.8916C28.5362 14.9748 28.1954 15.116 27.9442 15.3672C27.6929 15.6185 27.5518 15.9593 27.5518 16.3146C27.5518 16.6699 27.6929 17.0107 27.9442 17.2619C28.1954 17.5132 28.5362 17.6544 28.8916 17.6544H30.2313C30.5867 17.6544 30.9274 17.5132 31.1787 17.2619C31.4299 17.0107 31.5711 16.6699 31.5711 16.3146C31.5711 15.9593 31.4299 15.6185 31.1787 15.3672C30.9274 15.116 30.5867 14.9748 30.2313 14.9748Z" fill="#FFC62D"/>
</svg>
