<svg width="25" height="25" viewBox="0 0 25 25" fill="none" xmlns="http://www.w3.org/2000/svg">
<g clip-path="url(#clip0_36_324)">
<path d="M24.2676 16.6992H19.0509C18.6854 13.4079 15.8872 10.8398 12.5 10.8398C9.11284 10.8398 6.31465 13.4079 5.94912 16.6992H0.732422C0.32793 16.6992 0 17.0271 0 17.4316C0 17.8361 0.32793 18.1641 0.732422 18.1641H24.2676C24.6721 18.1641 25 17.8361 25 17.4316C25 17.0271 24.6721 16.6992 24.2676 16.6992ZM7.42559 16.6992C7.78208 14.2179 9.92163 12.3047 12.5 12.3047C15.0784 12.3047 17.2179 14.2179 17.5744 16.6992H7.42559Z" fill="#767677"/>
<path d="M21.7773 20.1172H3.22266C2.81816 20.1172 2.49023 20.4451 2.49023 20.8496C2.49023 21.2541 2.81816 21.582 3.22266 21.582H21.7773C22.1818 21.582 22.5098 21.2541 22.5098 20.8496C22.5098 20.4451 22.1818 20.1172 21.7773 20.1172Z" fill="#767677"/>
<path d="M19.3359 23.5352H5.66406C5.25957 23.5352 4.93164 23.8631 4.93164 24.2676C4.93164 24.6721 5.25957 25 5.66406 25H19.3359C19.7404 25 20.0684 24.6721 20.0684 24.2676C20.0684 23.8631 19.7404 23.5352 19.3359 23.5352Z" fill="#767677"/>
<path d="M3.69548 8.62737C3.40945 8.9134 3.40945 9.37712 3.69548 9.66316L5.76711 11.7348C6.05315 12.0208 6.51687 12.0208 6.80291 11.7348C7.08894 11.4488 7.08894 10.985 6.80291 10.699L4.73123 8.62737C4.44524 8.34133 3.98147 8.34133 3.69548 8.62737Z" fill="#767677"/>
<path d="M19.2327 11.7347L21.3044 9.66304C21.5904 9.377 21.5904 8.91328 21.3044 8.62725C21.0183 8.34121 20.5546 8.34121 20.2686 8.62725L18.1969 10.6989C17.9109 10.9849 17.9109 11.4486 18.1969 11.7347C18.483 12.0207 18.9467 12.0207 19.2327 11.7347Z" fill="#767677"/>
<path d="M12.5 9.375C12.9045 9.375 13.2324 9.04707 13.2324 8.64258V5.71289C13.2324 5.3084 12.9045 4.98047 12.5 4.98047C12.0955 4.98047 11.7676 5.3084 11.7676 5.71289V8.64258C11.7676 9.04707 12.0955 9.375 12.5 9.375Z" fill="#767677"/>
<path d="M8.4598 9.592C8.61458 9.96573 9.043 10.1432 9.41673 9.98839H9.41678C9.79051 9.8336 9.96795 9.40518 9.81317 9.03145L9.25257 7.67804C9.09779 7.3043 8.66937 7.12686 8.29564 7.28165H8.29559C7.92186 7.43643 7.74442 7.86485 7.8992 8.23858L8.4598 9.592Z" fill="#767677"/>
<path d="M3.30682 12.8308C2.93309 12.6761 2.50467 12.8535 2.34989 13.2272V13.2273C2.1951 13.601 2.37254 14.0294 2.74627 14.1842L4.09969 14.7448C4.47342 14.8996 4.90184 14.7222 5.05662 14.3484V14.3484C5.21141 13.9746 5.03397 13.5462 4.66024 13.3914L3.30682 12.8308Z" fill="#767677"/>
<path d="M19.9431 14.3484C20.098 14.7221 20.5264 14.8996 20.9001 14.7448L22.2535 14.1842C22.6272 14.0294 22.8047 13.601 22.6499 13.2273V13.2272C22.4951 12.8535 22.0666 12.6761 21.6929 12.8308L20.3395 13.3914C19.9658 13.5462 19.7884 13.9746 19.9431 14.3484Z" fill="#767677"/>
<path d="M15.5832 9.98826C15.9569 10.1431 16.3854 9.96561 16.5402 9.59188L17.1008 8.23846C17.2555 7.86473 17.0781 7.43631 16.7044 7.28153H16.7043C16.3306 7.12674 15.9022 7.30418 15.7474 7.67791L15.1868 9.03133C15.032 9.40506 15.2095 9.83348 15.5832 9.98826Z" fill="#767677"/>
<path d="M21.1677 7.10967C21.4537 7.3957 21.9175 7.3957 22.2035 7.10967L24.1566 5.15654C24.4427 4.87051 24.4427 4.40679 24.1566 4.12075C23.8706 3.83472 23.4069 3.83472 23.1208 4.12075L22.418 4.82358V0.732422C22.418 0.32793 22.0901 0 21.6856 0C21.2811 0 20.9531 0.32793 20.9531 0.732422V4.82358L20.2503 4.1208C19.9643 3.83477 19.5006 3.83477 19.2145 4.1208C18.9285 4.40684 18.9285 4.87056 19.2145 5.15659L21.1677 7.10967Z" fill="#767677"/>
</g>
<defs>
<clipPath id="clip0_36_324">
<rect width="25" height="25" fill="white"/>
</clipPath>
</defs>
</svg>
