<svg width="25" height="25" viewBox="0 0 25 25" fill="none" xmlns="http://www.w3.org/2000/svg">
<path d="M24.2676 16.6992H19.0509C18.6854 13.4079 15.8872 10.8398 12.5 10.8398C9.11284 10.8398 6.31465 13.4079 5.94912 16.6992H0.732422C0.32793 16.6992 0 17.0271 0 17.4316C0 17.8361 0.32793 18.1641 0.732422 18.1641H24.2676C24.6721 18.1641 25 17.8361 25 17.4316C25 17.0271 24.6721 16.6992 24.2676 16.6992ZM7.42559 16.6992C7.78208 14.2179 9.92163 12.3047 12.5 12.3047C15.0784 12.3047 17.2179 14.2179 17.5744 16.6992H7.42559Z" fill="#767677"/>
<path d="M21.7773 20.1172H3.22266C2.81816 20.1172 2.49023 20.4451 2.49023 20.8496C2.49023 21.2541 2.81816 21.582 3.22266 21.582H21.7773C22.1818 21.582 22.5098 21.2541 22.5098 20.8496C22.5098 20.4451 22.1818 20.1172 21.7773 20.1172Z" fill="#767677"/>
<path d="M19.3359 23.5352H5.66406C5.25957 23.5352 4.93164 23.8631 4.93164 24.2676C4.93164 24.6721 5.25957 25 5.66406 25H19.3359C19.7404 25 20.0684 24.6721 20.0684 24.2676C20.0684 23.8631 19.7404 23.5352 19.3359 23.5352Z" fill="#767677"/>
<path d="M3.69597 8.62737C3.40994 8.9134 3.40994 9.37712 3.69597 9.66316L5.7676 11.7348C6.05364 12.0208 6.51736 12.0208 6.80339 11.7348C7.08943 11.4488 7.08943 10.985 6.80339 10.699L4.73171 8.62737C4.44573 8.34133 3.98196 8.34133 3.69597 8.62737Z" fill="#767677"/>
<path d="M19.2327 11.7348L21.3044 9.66316C21.5904 9.37712 21.5904 8.9134 21.3044 8.62737C21.0183 8.34133 20.5546 8.34133 20.2686 8.62737L18.1969 10.699C17.9109 10.985 17.9109 11.4488 18.1969 11.7348C18.483 12.0208 18.9467 12.0208 19.2327 11.7348Z" fill="#767677"/>
<path d="M12.5 9.375C12.9045 9.375 13.2324 9.04707 13.2324 8.64258V5.71289C13.2324 5.3084 12.9045 4.98047 12.5 4.98047C12.0955 4.98047 11.7676 5.3084 11.7676 5.71289V8.64258C11.7676 9.04707 12.0955 9.375 12.5 9.375Z" fill="#767677"/>
<path d="M8.4598 9.592C8.61458 9.96573 9.043 10.1432 9.41673 9.98839H9.41678C9.79051 9.8336 9.96795 9.40518 9.81317 9.03145L9.25257 7.67804C9.09779 7.3043 8.66937 7.12686 8.29564 7.28165H8.29559C7.92186 7.43643 7.74442 7.86485 7.8992 8.23858L8.4598 9.592Z" fill="#767677"/>
<path d="M3.30682 12.8311C2.93309 12.6763 2.50467 12.8537 2.34989 13.2275V13.2275C2.1951 13.6013 2.37254 14.0297 2.74627 14.1845L4.09969 14.7451C4.47342 14.8998 4.90184 14.7224 5.05662 14.3487V14.3486C5.21141 13.9749 5.03397 13.5465 4.66024 13.3917L3.30682 12.8311Z" fill="#767677"/>
<path d="M19.9431 14.3486C20.098 14.7223 20.5264 14.8998 20.9001 14.7451L22.2535 14.1845C22.6272 14.0297 22.8047 13.6013 22.6499 13.2275V13.2275C22.4951 12.8537 22.0666 12.6763 21.6929 12.8311L20.3395 13.3917C19.9658 13.5465 19.7884 13.9749 19.9431 14.3486Z" fill="#767677"/>
<path d="M15.5832 9.98839C15.9569 10.1432 16.3854 9.96573 16.5402 9.592L17.1008 8.23858C17.2555 7.86485 17.0781 7.43643 16.7044 7.28165H16.7043C16.3306 7.12686 15.9022 7.3043 15.7474 7.67804L15.1868 9.03145C15.032 9.40518 15.2095 9.8336 15.5832 9.98839Z" fill="#767677"/>
<path d="M3.20339 0.21455C2.91736 -0.0714846 2.45364 -0.0714846 2.1676 0.21455L0.214478 2.16768C-0.0715575 2.45371 -0.0715575 2.91743 0.214478 3.20347C0.500513 3.4895 0.964233 3.4895 1.25027 3.20347L1.9531 2.50063L1.9531 6.5918C1.9531 6.99629 2.28103 7.32422 2.68552 7.32422C3.09001 7.32422 3.41794 6.99629 3.41794 6.5918L3.41794 2.50063L4.12078 3.20342C4.40681 3.48945 4.87053 3.48945 5.15657 3.20342C5.4426 2.91738 5.4426 2.45366 5.15657 2.16763L3.20339 0.21455Z" fill="#767677"/>
</svg>
